G04*
G04 #@! TF.GenerationSoftware,Altium Limited,Altium Designer,18.0.12 (696)*
G04*
G04 Layer_Physical_Order=2*
G04 Layer_Color=32768*
%FSLAX43Y43*%
%MOMM*%
G71*
G01*
G75*
%ADD56C,0.508*%
%ADD70C,1.016*%
%ADD71C,1.916*%
%ADD72C,2.845*%
%ADD73C,4.016*%
%ADD74C,2.616*%
%ADD75C,4.266*%
%ADD76C,2.586*%
%ADD77C,4.826*%
%ADD78C,2.116*%
%ADD79C,1.716*%
%ADD80C,2.286*%
%ADD81C,1.321*%
D56*
X78511Y27915D02*
X85344Y21082D01*
X87884Y18542D02*
X93980D01*
X85344Y21082D02*
X87884Y18542D01*
X99949Y64008D02*
X124232Y39725D01*
X125857D01*
X70891Y27915D02*
X78511D01*
X93980Y18542D02*
X103149Y9373D01*
X63881Y57125D02*
X63881Y28067D01*
X50013Y57125D02*
X73533D01*
X1930Y11887D02*
X40818D01*
X30531Y57125D02*
X50013D01*
X1930Y28524D02*
X30531Y57125D01*
X1930Y11887D02*
Y28524D01*
X88367Y57125D02*
X117348Y28143D01*
Y20142D02*
Y28143D01*
X73533Y57125D02*
X88367D01*
X125857Y39725D02*
X139827D01*
X126873Y69088D02*
X139827Y56134D01*
X87884Y69088D02*
X126873D01*
X87884Y64008D02*
Y69088D01*
X103149Y9373D02*
X117348D01*
Y0D02*
Y20142D01*
X87884Y64008D02*
X99949D01*
X40818Y102D02*
Y11887D01*
X56845Y27915D01*
X70891D01*
D70*
X-0Y-0D02*
X-0Y114300D01*
X-0Y-0D02*
X139700Y-0D01*
X139700Y114300D01*
X-0Y114300D02*
X139700Y114300D01*
D71*
X126796Y81984D02*
D03*
X124256Y83254D02*
D03*
Y85794D02*
D03*
X126796Y87064D02*
D03*
Y84524D02*
D03*
X124256Y88334D02*
D03*
X126796Y89604D02*
D03*
X124256Y90874D02*
D03*
X126796Y100965D02*
D03*
X124256Y102235D02*
D03*
Y104775D02*
D03*
X126796Y106045D02*
D03*
Y103505D02*
D03*
X124256Y107315D02*
D03*
X126796Y108585D02*
D03*
X124256Y109855D02*
D03*
X12750Y83185D02*
D03*
X15290Y81915D02*
D03*
X12750Y85725D02*
D03*
X15290Y86995D02*
D03*
X12750Y90805D02*
D03*
X15290Y89535D02*
D03*
Y100965D02*
D03*
X12750Y102235D02*
D03*
Y104775D02*
D03*
X15290Y106045D02*
D03*
Y108585D02*
D03*
X12750Y109855D02*
D03*
X47552Y88398D02*
D03*
X51362Y90938D02*
D03*
X48822Y97542D02*
D03*
X50092Y95002D02*
D03*
X45012Y95002D02*
D03*
X46282Y97542D02*
D03*
X86922Y88398D02*
D03*
X88192Y90938D02*
D03*
X58982Y88398D02*
D03*
X60252Y90938D02*
D03*
X75492Y88394D02*
D03*
X79302Y90934D02*
D03*
X12750Y107315D02*
D03*
X15290Y103505D02*
D03*
X12750Y88265D02*
D03*
X15290Y84455D02*
D03*
X62792Y97542D02*
D03*
X64062Y95002D02*
D03*
X62792Y90938D02*
D03*
X64062Y88398D02*
D03*
X78032Y94998D02*
D03*
X76762Y97538D02*
D03*
X80572Y94988D02*
D03*
X81842Y97538D02*
D03*
X78032Y88394D02*
D03*
X76762Y90934D02*
D03*
X86922Y95002D02*
D03*
X88192Y97542D02*
D03*
X90732D02*
D03*
X92002Y95002D02*
D03*
X92002Y88398D02*
D03*
X90732Y90938D02*
D03*
X72952Y88394D02*
D03*
X80572Y88384D02*
D03*
X74222Y90934D02*
D03*
X81842D02*
D03*
X89462Y88398D02*
D03*
X94542D02*
D03*
X93272Y90938D02*
D03*
X95812D02*
D03*
X67872Y90938D02*
D03*
X65332D02*
D03*
X66602Y88388D02*
D03*
X61522Y88398D02*
D03*
X53902Y90938D02*
D03*
X48822D02*
D03*
X46282D02*
D03*
X52632Y88388D02*
D03*
X50092Y88398D02*
D03*
X45012Y88398D02*
D03*
X47552Y95002D02*
D03*
X52632Y94992D02*
D03*
X51362Y97542D02*
D03*
X53902D02*
D03*
X58982Y95002D02*
D03*
X61522D02*
D03*
X66602Y94992D02*
D03*
X60252Y97542D02*
D03*
X65332D02*
D03*
X67872D02*
D03*
X95812Y97542D02*
D03*
X93272D02*
D03*
X94542Y95002D02*
D03*
X89462D02*
D03*
X79302Y97538D02*
D03*
X74222D02*
D03*
X75492Y94998D02*
D03*
X72952D02*
D03*
D72*
X133322Y15047D02*
D03*
Y20547D02*
D03*
X129122Y15047D02*
D03*
D73*
X131222Y7747D02*
D03*
D74*
X136196Y113210D02*
D03*
Y97610D02*
D03*
X3350D02*
D03*
Y113210D02*
D03*
X136196Y94229D02*
D03*
Y78629D02*
D03*
X3350Y78560D02*
D03*
Y94160D02*
D03*
D75*
X133146Y99695D02*
D03*
Y111125D02*
D03*
X6400D02*
D03*
Y99695D02*
D03*
X133146Y80714D02*
D03*
Y92144D02*
D03*
X6400Y92075D02*
D03*
Y80645D02*
D03*
X43742Y103888D02*
D03*
X97082D02*
D03*
D76*
X99872Y108458D02*
D03*
X99112Y94748D02*
D03*
X99872Y88398D02*
D03*
X40952Y108458D02*
D03*
X41712Y98048D02*
D03*
X40952Y92458D02*
D03*
D77*
X110871Y90297D02*
D03*
Y24257D02*
D03*
X27813D02*
D03*
Y90297D02*
D03*
X105322Y74100D02*
D03*
X35322Y3490D02*
D03*
D78*
X40825Y58641D02*
D03*
X95425Y68041D02*
D03*
X84425Y12041D02*
D03*
X84825Y58641D02*
D03*
D79*
X40825Y18441D02*
D03*
X55225Y68041D02*
D03*
X44225Y12041D02*
D03*
X84825Y18441D02*
D03*
D80*
X3125Y29972D02*
D03*
Y32512D02*
D03*
Y35052D02*
D03*
Y37592D02*
D03*
Y40132D02*
D03*
X5665Y29972D02*
D03*
Y32512D02*
D03*
Y35052D02*
D03*
Y37592D02*
D03*
Y40132D02*
D03*
X8205Y29972D02*
D03*
Y32512D02*
D03*
Y35052D02*
D03*
Y37592D02*
D03*
Y40132D02*
D03*
X3125Y42672D02*
D03*
Y45212D02*
D03*
Y47752D02*
D03*
Y50292D02*
D03*
Y52832D02*
D03*
X5665Y42672D02*
D03*
Y45212D02*
D03*
Y47752D02*
D03*
Y50292D02*
D03*
Y52832D02*
D03*
X8205Y42672D02*
D03*
Y45212D02*
D03*
Y47752D02*
D03*
Y50292D02*
D03*
Y52832D02*
D03*
X3125Y55372D02*
D03*
Y57912D02*
D03*
Y60452D02*
D03*
Y62992D02*
D03*
Y65532D02*
D03*
X5665Y55372D02*
D03*
Y57912D02*
D03*
Y60452D02*
D03*
Y62992D02*
D03*
Y65532D02*
D03*
X8205Y55372D02*
D03*
Y57912D02*
D03*
Y60452D02*
D03*
Y62992D02*
D03*
Y65532D02*
D03*
X3125Y17272D02*
D03*
Y19812D02*
D03*
Y22352D02*
D03*
X5665Y17272D02*
D03*
Y19812D02*
D03*
Y22352D02*
D03*
X8205Y17272D02*
D03*
Y19812D02*
D03*
Y22352D02*
D03*
D81*
X104546Y47676D02*
D03*
X100381Y102921D02*
D03*
X96495Y84709D02*
D03*
X94158Y81610D02*
D03*
X88392Y85725D02*
D03*
X82042Y86893D02*
D03*
X76479Y84734D02*
D03*
X35839Y49555D02*
D03*
X36932Y51587D02*
D03*
X64516Y6096D02*
D03*
X64618Y17374D02*
D03*
X102692Y54788D02*
D03*
X103759Y52756D02*
D03*
X108102Y44247D02*
D03*
X67920Y2718D02*
D03*
X69621Y5893D02*
D03*
X79350Y5512D02*
D03*
X76937Y5359D02*
D03*
X136251Y102449D02*
D03*
Y89749D02*
D03*
Y64349D02*
D03*
Y38949D02*
D03*
Y13549D02*
D03*
Y849D02*
D03*
X133076Y108799D02*
D03*
X129901Y102449D02*
D03*
X133076Y96099D02*
D03*
X129901Y89749D02*
D03*
X133076Y83399D02*
D03*
X129901Y77049D02*
D03*
X133076Y70699D02*
D03*
X129901Y64349D02*
D03*
X133076Y57999D02*
D03*
X129901Y38949D02*
D03*
X133076Y32599D02*
D03*
X129901Y849D02*
D03*
X126726Y96099D02*
D03*
X123551Y77049D02*
D03*
X126726Y70699D02*
D03*
Y57999D02*
D03*
X123551Y51649D02*
D03*
Y38949D02*
D03*
X126726Y32599D02*
D03*
X123551Y26249D02*
D03*
X126726Y19899D02*
D03*
X123551Y13549D02*
D03*
X126726Y7199D02*
D03*
X123551Y849D02*
D03*
X120376Y96099D02*
D03*
Y57999D02*
D03*
Y45299D02*
D03*
Y32599D02*
D03*
X117201Y26249D02*
D03*
X120376Y19899D02*
D03*
X117201Y13549D02*
D03*
X120376Y7199D02*
D03*
X117201Y849D02*
D03*
X110851Y102449D02*
D03*
X114026Y19899D02*
D03*
X110851Y849D02*
D03*
X107676Y108799D02*
D03*
X104501Y38949D02*
D03*
Y26249D02*
D03*
X107676Y19899D02*
D03*
X104501Y849D02*
D03*
X101326Y83399D02*
D03*
Y7199D02*
D03*
X98151Y849D02*
D03*
X94976Y108799D02*
D03*
X91801Y102449D02*
D03*
Y77049D02*
D03*
Y13549D02*
D03*
Y849D02*
D03*
X88626Y108799D02*
D03*
X85451Y102449D02*
D03*
X88626Y57999D02*
D03*
X85451Y13549D02*
D03*
X82276Y108799D02*
D03*
X79101Y102449D02*
D03*
Y77049D02*
D03*
X82276Y57999D02*
D03*
X79101Y26249D02*
D03*
X82276Y19899D02*
D03*
X75926Y108799D02*
D03*
X72751Y102449D02*
D03*
X75926Y70699D02*
D03*
Y57999D02*
D03*
Y45299D02*
D03*
Y32599D02*
D03*
X69576Y108799D02*
D03*
X66401Y102449D02*
D03*
X69576Y96099D02*
D03*
X60051Y51649D02*
D03*
Y38949D02*
D03*
Y26249D02*
D03*
X56876Y108799D02*
D03*
X53701Y102449D02*
D03*
X56876Y96099D02*
D03*
X50526Y108799D02*
D03*
X47351Y102449D02*
D03*
Y77049D02*
D03*
Y64349D02*
D03*
Y38949D02*
D03*
Y26249D02*
D03*
X44176Y108799D02*
D03*
X41001Y102449D02*
D03*
X44176Y83399D02*
D03*
X41001Y77049D02*
D03*
X37826Y108799D02*
D03*
X34651Y102449D02*
D03*
Y77049D02*
D03*
X37826Y70699D02*
D03*
X34651Y64349D02*
D03*
Y13549D02*
D03*
X37826Y7199D02*
D03*
X31476Y108799D02*
D03*
X28301Y102449D02*
D03*
X31476Y19899D02*
D03*
X28301Y13549D02*
D03*
X31476Y7199D02*
D03*
X28301Y849D02*
D03*
X21951Y102449D02*
D03*
X25126Y96099D02*
D03*
X21951Y89749D02*
D03*
Y26249D02*
D03*
Y849D02*
D03*
X18776Y96099D02*
D03*
Y83399D02*
D03*
X15601Y77049D02*
D03*
X18776Y70699D02*
D03*
X15601Y64349D02*
D03*
Y51649D02*
D03*
Y38949D02*
D03*
X18776Y32599D02*
D03*
X15601Y26249D02*
D03*
Y13549D02*
D03*
X18776Y7199D02*
D03*
X15601Y849D02*
D03*
X9251Y102449D02*
D03*
X12426Y96099D02*
D03*
X9251Y89749D02*
D03*
Y77049D02*
D03*
X12426Y70699D02*
D03*
Y57999D02*
D03*
Y32599D02*
D03*
Y19899D02*
D03*
X9251Y13549D02*
D03*
X12426Y7199D02*
D03*
X9251Y849D02*
D03*
X6076Y108799D02*
D03*
X2901Y102449D02*
D03*
X6076Y96099D02*
D03*
X2901Y89749D02*
D03*
X6076Y83399D02*
D03*
Y70699D02*
D03*
X2901Y13549D02*
D03*
X6076Y7199D02*
D03*
X2901Y849D02*
D03*
X32639Y50194D02*
D03*
Y50982D02*
D03*
X104686Y108115D02*
D03*
X105243Y108672D02*
D03*
X103909Y102512D02*
D03*
X103352Y101955D02*
D03*
X102411Y100760D02*
D03*
X101854Y100203D02*
D03*
X116522Y98679D02*
D03*
X115735D02*
D03*
X110337Y30252D02*
D03*
X110894Y29695D02*
D03*
X108813Y33554D02*
D03*
X109370Y32997D02*
D03*
X23711Y95504D02*
D03*
X22924D02*
D03*
X121488Y72898D02*
D03*
X120701D02*
D03*
X111798Y49911D02*
D03*
X112586D02*
D03*
X110808Y51689D02*
D03*
X110020D02*
D03*
X108775Y53340D02*
D03*
X107988D02*
D03*
X105219Y57023D02*
D03*
X104432D02*
D03*
X103188Y58166D02*
D03*
X102400D02*
D03*
X106210Y55626D02*
D03*
X106997D02*
D03*
X22822Y73025D02*
D03*
X22035D02*
D03*
X34036Y26979D02*
D03*
Y26191D02*
D03*
X30353Y33541D02*
D03*
Y32753D02*
D03*
X33401Y35023D02*
D03*
Y34235D02*
D03*
X30480Y39806D02*
D03*
Y39018D02*
D03*
X33401Y41330D02*
D03*
Y40542D02*
D03*
X34290Y48188D02*
D03*
Y47400D02*
D03*
X33909Y53057D02*
D03*
Y52269D02*
D03*
X42378Y87844D02*
D03*
X41821Y87287D02*
D03*
X39967Y68072D02*
D03*
X39180D02*
D03*
X36411Y70612D02*
D03*
X35624D02*
D03*
X41275Y1486D02*
D03*
Y698D02*
D03*
X43180Y2629D02*
D03*
Y1842D02*
D03*
X45466Y3772D02*
D03*
Y2984D02*
D03*
X47498Y4915D02*
D03*
Y4128D02*
D03*
X48133Y21535D02*
D03*
Y20747D02*
D03*
X47371Y34135D02*
D03*
Y33347D02*
D03*
X88011Y2121D02*
D03*
Y1334D02*
D03*
X86614Y3518D02*
D03*
Y2730D02*
D03*
X85090Y4788D02*
D03*
Y4001D02*
D03*
X99733Y77978D02*
D03*
X100521D02*
D03*
X92202Y16319D02*
D03*
Y15532D02*
D03*
X99123Y76073D02*
D03*
X98336D02*
D03*
X93472Y21535D02*
D03*
Y20747D02*
D03*
X74066Y67424D02*
D03*
Y66637D02*
D03*
X97574Y77191D02*
D03*
X96787D02*
D03*
X93726Y24524D02*
D03*
Y23736D02*
D03*
X87249Y30347D02*
D03*
X73726Y11557D02*
D03*
X56593Y82726D02*
D03*
X57150Y82169D02*
D03*
X57595Y75590D02*
D03*
X56807D02*
D03*
X59326Y11430D02*
D03*
X58523D02*
D03*
X55586Y19467D02*
D03*
X55029Y18910D02*
D03*
X87249Y31135D02*
D03*
X70675Y19431D02*
D03*
X69887D02*
D03*
X73089Y82626D02*
D03*
X72301D02*
D03*
X70015Y78524D02*
D03*
X69459Y79081D02*
D03*
X65871Y19904D02*
D03*
X66438Y19337D02*
D03*
X65363Y22317D02*
D03*
X65930Y21750D02*
D03*
X68428Y81381D02*
D03*
X67871Y81938D02*
D03*
X64887Y81316D02*
D03*
X65443Y80759D02*
D03*
X62506Y26190D02*
D03*
X63073Y25623D02*
D03*
X49199Y6192D02*
D03*
Y5390D02*
D03*
X63526Y3556D02*
D03*
X62723D02*
D03*
X54526Y11557D02*
D03*
X53723D02*
D03*
X72923D02*
D03*
X73730Y2921D02*
D03*
X72928D02*
D03*
X78526Y11557D02*
D03*
X77723D02*
D03*
X63126Y66294D02*
D03*
X62323D02*
D03*
X60126Y66040D02*
D03*
X59323D02*
D03*
X68123Y11430D02*
D03*
X68926D02*
D03*
X87426Y22240D02*
D03*
Y23042D02*
D03*
X72226Y16002D02*
D03*
X71423D02*
D03*
X98348Y99766D02*
D03*
Y98964D02*
D03*
X75526Y15494D02*
D03*
X74723D02*
D03*
M02*
