M48
;Layer_Color=9474304
;FILE_FORMAT=4:3
METRIC,TZ
;TYPE=PLATED
T1F00S00C0.305
T2F00S00C0.900
T3F00S00C1.270
T4F00S00C1.570
T5F00S00C1.600
T6F00S00C1.829
T7F00S00C3.000
T8F00S00C3.810
%
T01
X2901Y849
X9251
X15601
X21951
X21590Y2540
X22225Y3175
Y4445
Y5715
X21590Y5080
Y3810
Y6350
X18776Y7199
X12426
X6076
X9251Y13549
X15601
X21590Y13335
Y14605
Y15875
X22860Y15240
Y13970
X24130Y14605
Y15875
X25400Y15240
Y13970
X26670Y14605
Y15820
Y17145
Y18415
X25400Y19050
X24130
X22860
X21590
X20320
X19050
X17780Y18415
X20955Y17780
X24130Y13335
X26670
X21951Y26249
X15601
X18776Y32599
X12426
Y19899
X2901Y13549
X28301
X34651
X37826Y7199
X31476
X28301Y849
X41275Y698
Y1486
X43180Y1842
Y2629
X45466Y2984
Y3772
X47498Y4128
Y4915
X49199Y5390
Y6192
X53723Y11557
X54526
X55372Y10160
X58523Y11430
X59326
X60579Y9728
X64262Y9627
X63627Y11303
X64516Y6096
X63526Y3556
X62723
X67920Y2718
X67691Y15875
X64618Y17374
X65871Y19904
X66438Y19337
X65930Y21750
X65363Y22317
X63073Y25623
X62506Y26190
X60051Y26249
X55586Y19467
X55029Y18910
X48133Y20747
Y21535
X46928Y22641
X47351Y26249
X46928Y27441
X46928Y32241
X47371Y33347
Y34135
X46928Y37041
X37722Y34641
X33401Y35023
Y34235
X30353Y33541
Y32753
X34036Y26979
Y26191
X37722Y25041
Y29841
X31476Y19899
X69887Y19431
X70675
X71423Y16002
X72226
X74723Y15494
X75526
X73726Y11557
X72923
X71120Y11303
X70561Y9779
X68926Y11430
X68123
X69621Y5893
X74225Y5938
X76937Y5359
X79350Y5512
X85090Y4788
Y4001
X86614Y3518
Y2730
X88011Y2121
Y1334
X91801Y849
X98151
X104501
X105918Y4394
X106553Y5029
X107188Y4394
X101326Y7199
X106553Y12649
X107188Y13284
X104501Y26249
X93726Y24524
Y23736
X93472Y21535
Y20747
X90928Y22641
X87426Y22240
Y23042
X87249Y30347
Y31135
X90928Y32241
Y27441
Y37041
X81722Y34641
Y29841
Y25041
X79101Y26249
X82276Y19899
X85451Y13549
X91801
X92202Y15532
Y16319
X78526Y11557
X77723
X73730Y2921
X72928
X75926Y32599
X108813Y33554
X109370Y32997
X110337Y30252
X110894Y29695
X117201Y26249
X123551
X126726Y32599
X133076
X137236Y30886
X136251Y13549
Y849
X129901
X123551
X123063Y2489
X124333
X123698Y3124
X122428
X121793Y2489
X121158Y3124
X124968
X126726Y7199
X120376
X121793Y11379
X123063
X124333
X123698Y12014
X122428
X121158
X124968
X123551Y13549
X117201
X112903Y13919
X111633
X110430
X110998Y12649
X112268
X112903Y11379
X111633
X110430
X109093Y10744
X107823Y11379
X112268Y14554
X113538
X112903Y15189
X111633
X114026Y19899
X120376
X126726
X120376Y32599
X107676Y19899
X107823Y3124
X109093Y2489
X109728Y3124
X110998Y3759
X112268
X112903Y2489
X111633
X110851Y849
X111633Y5029
X112903
X112268Y6299
X110998
X113538
X117201Y849
X123551Y38949
X124186Y40219
X125456
Y42759
Y45299
X124186
X122916
X122281Y46569
X120376Y45299
X123551Y51649
X127361
X128631
X129901
X131171
X132441
X133711
X134981
X136251
X136886Y52919
X135616
X134346
X133076
X131806
X130536
X129266
X127996
X126726
X127361Y54189
X128631
X129901
X131171
X132441
X133711
X134981
X136251
X136886Y50379
X135616
X134346
X133076
X131806
X130536
X129266
X127996
X126726
X127361Y49109
X128631
X129901
X131171
X132441
X133711
X134981
X136251
Y38949
X129901
X126091Y49109
X126726Y57999
X133076
X136251Y64349
X129901
X133076Y70699
X126726
X121488Y72898
X120701
X120376Y57999
X112586Y49911
X111798
X110808Y51689
X110020
X108775Y53340
X107988
X108102Y44247
X104546Y47676
X103759Y52756
X102692Y54788
X102400Y58166
X103188
X104432Y57023
X105219
X106210Y55626
X106997
X104501Y38949
X90928Y41841
Y46641
Y51441
X88626Y57999
X82276
X81722Y53841
Y49041
Y44241
Y39441
X75926Y45299
Y57999
X74066Y66637
Y67424
X75926Y70699
X88950Y68072
X90170Y67945
X91440
X92710
X92075Y67310
Y66040
X92710Y65405
X91440
X90805Y66040
X89535
X88900Y65405
X90170
Y66675
X89535Y67310
X90805
X91440Y66675
X92710
X88900
X98336Y76073
X99123
X57595Y75590
X56807
X59323Y66040
X60126
X62323Y66294
X63126
X60051Y51649
Y38949
X47351
X46928Y41841
Y46641
X46928Y51441
X36932Y51587
X36830Y54102
Y55245
X37465Y54610
Y55880
X33909Y53057
Y52269
X32639Y50982
Y50194
X34290Y48188
Y47400
X35839Y49555
X37722Y49041
X41015Y44241
X37722Y39441
X33401Y40542
Y41330
X30480Y39806
Y39018
X34651Y64349
X35624Y70612
X36411
X37826Y70699
X39180Y68072
X39967
X47351Y64349
X15601
X18776Y70699
X22035Y73025
X22822
X12426Y70699
X6076
X12426Y57999
X15601Y51649
Y38949
Y77049
X9251
X6076Y83399
X9251Y89749
X2901
X6076Y96099
X12426
X18776
X22924Y95504
X23711
X25126Y96099
X21951Y102449
Y89749
X18776Y83399
X9251Y102449
X2901
X6076Y108799
X31476
X37826
X44176
X50526
X56876
X53701Y102449
X47351
X41001
X34651
X28301
X42378Y87844
X41821Y87287
X44176Y83399
X47351Y77049
X41001
X34651
X56593Y82726
X57150Y82169
X64887Y81316
X65443Y80759
X67871Y81938
X66401Y102449
X56876Y96099
X69576
X72751Y102449
X79101
X85451
X91801
X100381Y102921
X103909Y102512
X103352Y101955
X102411Y100760
X101854Y100203
X98348Y99766
Y98964
X94976Y108799
X88626
X82276
X75926
X69576
X68428Y81381
X69459Y79081
X70015Y78524
X72301Y82626
X73089
X76479Y84734
X82042Y86893
X88392Y85725
X96495Y84709
X94158Y81610
X91801Y77049
X96787Y77191
X97574
X99733Y77978
X100521
X101326Y83399
X104686Y108115
X105243Y108672
X79101Y77049
X123551
X129901
X133076Y83399
X136251Y89749
X129901
X133076Y96099
X126726
X120376
X116522Y98679
X115735
X110851Y102449
X107676Y108799
X133076
X136251Y102449
X129901
T02
X12750Y83185
Y85725
Y88265
Y90805
X15290Y89535
Y86995
Y84455
Y81915
Y100965
Y103505
Y106045
Y108585
X12750Y109855
Y107315
Y104775
Y102235
X46282Y97542
X48822
X51362
X53902
X52632Y94992
X50092Y95002
X47552Y95002
X45012
X46282Y90938
X48822
X51362
X53902
X52632Y88388
X50092Y88398
X47552Y88398
X45012
X58982
X61522
X64062Y88398
X66602Y88388
X67872Y90938
X65332
X62792
X60252
X58982Y95002
X61522
X64062Y95002
X66602Y94992
X67872Y97542
X65332
X62792
X60252
X74222Y97538
X76762
X79302
X81842
X80572Y94988
X78032Y94998
X75492Y94998
X72952
X74222Y90934
X76762
X79302
X81842
X80572Y88384
X78032Y88394
X75492Y88394
X72952
X86922Y88398
X89462
X92002
X94542
X93272Y90938
X90732
X88192
X89462Y95002
X86922
X88192Y97542
X90732
X93272
X95812
X94542Y95002
X92002
X95812Y90938
X124256Y90874
Y88334
Y85794
Y83254
X126796Y81984
Y84524
Y87064
Y89604
Y100965
Y103505
Y106045
Y108585
X124256Y107315
Y104775
Y102235
Y109855
T03
X3125Y17272
Y19812
Y22352
Y24892
Y27432
Y29972
Y32512
Y35052
X5665
Y32512
Y29972
X8205
Y32512
Y35052
Y27432
X5665
Y24892
Y22352
Y19812
Y17272
X8205
Y19812
Y22352
Y24892
Y37592
X5665
X3125
Y40132
X5665
X8205
Y42672
X5665
X3125
Y45212
Y47752
Y50292
Y52832
X5665
Y50292
Y47752
Y45212
X8205
Y47752
Y50292
Y52832
Y55372
X5665
X3125
Y57912
Y60452
Y62992
Y65532
X5665
Y62992
Y60452
Y57912
X8205
Y60452
Y62992
Y65532
T04
X40952Y92458
X41712Y98048
X40952Y108458
X99872
X99112Y94748
X99872Y88398
T05
X3350Y78560
Y94160
Y97610
Y113210
X136196
Y97610
Y94229
Y78629
T06
X129122Y15047
X133322
Y20547
X129122
T07
X131222Y7747
T08
X27813Y24257
X35322Y3490
X110871Y24257
X105322Y74100
X27813Y90297
X110871
M30
