G04*
G04 #@! TF.GenerationSoftware,Altium Limited,Altium Designer,18.0.12 (696)*
G04*
G04 Layer_Color=8388736*
%FSLAX43Y43*%
%MOMM*%
G71*
G01*
G75*
%ADD16O,0.502X1.852*%
%ADD17O,1.852X0.502*%
G04:AMPARAMS|DCode=18|XSize=0.702mm|YSize=0.752mm|CornerRadius=0.201mm|HoleSize=0mm|Usage=FLASHONLY|Rotation=90.000|XOffset=0mm|YOffset=0mm|HoleType=Round|Shape=RoundedRectangle|*
%AMROUNDEDRECTD18*
21,1,0.702,0.350,0,0,90.0*
21,1,0.300,0.752,0,0,90.0*
1,1,0.402,0.175,0.150*
1,1,0.402,0.175,-0.150*
1,1,0.402,-0.175,-0.150*
1,1,0.402,-0.175,0.150*
%
%ADD18ROUNDEDRECTD18*%
G04:AMPARAMS|DCode=19|XSize=1.602mm|YSize=1.602mm|CornerRadius=0.201mm|HoleSize=0mm|Usage=FLASHONLY|Rotation=90.000|XOffset=0mm|YOffset=0mm|HoleType=Round|Shape=RoundedRectangle|*
%AMROUNDEDRECTD19*
21,1,1.602,1.200,0,0,90.0*
21,1,1.200,1.602,0,0,90.0*
1,1,0.402,0.600,0.600*
1,1,0.402,0.600,-0.600*
1,1,0.402,-0.600,-0.600*
1,1,0.402,-0.600,0.600*
%
%ADD19ROUNDEDRECTD19*%
G04:AMPARAMS|DCode=20|XSize=1.602mm|YSize=1.602mm|CornerRadius=0.201mm|HoleSize=0mm|Usage=FLASHONLY|Rotation=0.000|XOffset=0mm|YOffset=0mm|HoleType=Round|Shape=RoundedRectangle|*
%AMROUNDEDRECTD20*
21,1,1.602,1.200,0,0,0.0*
21,1,1.200,1.602,0,0,0.0*
1,1,0.402,0.600,-0.600*
1,1,0.402,-0.600,-0.600*
1,1,0.402,-0.600,0.600*
1,1,0.402,0.600,0.600*
%
%ADD20ROUNDEDRECTD20*%
G04:AMPARAMS|DCode=21|XSize=1.302mm|YSize=1.902mm|CornerRadius=0.351mm|HoleSize=0mm|Usage=FLASHONLY|Rotation=270.000|XOffset=0mm|YOffset=0mm|HoleType=Round|Shape=RoundedRectangle|*
%AMROUNDEDRECTD21*
21,1,1.302,1.200,0,0,270.0*
21,1,0.600,1.902,0,0,270.0*
1,1,0.702,-0.600,-0.300*
1,1,0.702,-0.600,0.300*
1,1,0.702,0.600,0.300*
1,1,0.702,0.600,-0.300*
%
%ADD21ROUNDEDRECTD21*%
G04:AMPARAMS|DCode=22|XSize=2.802mm|YSize=2.602mm|CornerRadius=0.676mm|HoleSize=0mm|Usage=FLASHONLY|Rotation=270.000|XOffset=0mm|YOffset=0mm|HoleType=Round|Shape=RoundedRectangle|*
%AMROUNDEDRECTD22*
21,1,2.802,1.250,0,0,270.0*
21,1,1.450,2.602,0,0,270.0*
1,1,1.352,-0.625,-0.725*
1,1,1.352,-0.625,0.725*
1,1,1.352,0.625,0.725*
1,1,1.352,0.625,-0.725*
%
%ADD22ROUNDEDRECTD22*%
%ADD23R,10.452X8.002*%
%ADD24R,1.002X2.952*%
G04:AMPARAMS|DCode=25|XSize=5.452mm|YSize=2.002mm|CornerRadius=0.526mm|HoleSize=0mm|Usage=FLASHONLY|Rotation=180.000|XOffset=0mm|YOffset=0mm|HoleType=Round|Shape=RoundedRectangle|*
%AMROUNDEDRECTD25*
21,1,5.452,0.950,0,0,180.0*
21,1,4.400,2.002,0,0,180.0*
1,1,1.052,-2.200,0.475*
1,1,1.052,2.200,0.475*
1,1,1.052,2.200,-0.475*
1,1,1.052,-2.200,-0.475*
%
%ADD25ROUNDEDRECTD25*%
G04:AMPARAMS|DCode=26|XSize=2.002mm|YSize=1.302mm|CornerRadius=0.351mm|HoleSize=0mm|Usage=FLASHONLY|Rotation=90.000|XOffset=0mm|YOffset=0mm|HoleType=Round|Shape=RoundedRectangle|*
%AMROUNDEDRECTD26*
21,1,2.002,0.600,0,0,90.0*
21,1,1.300,1.302,0,0,90.0*
1,1,0.702,0.300,0.650*
1,1,0.702,0.300,-0.650*
1,1,0.702,-0.300,-0.650*
1,1,0.702,-0.300,0.650*
%
%ADD26ROUNDEDRECTD26*%
G04:AMPARAMS|DCode=27|XSize=0.702mm|YSize=0.752mm|CornerRadius=0.201mm|HoleSize=0mm|Usage=FLASHONLY|Rotation=0.000|XOffset=0mm|YOffset=0mm|HoleType=Round|Shape=RoundedRectangle|*
%AMROUNDEDRECTD27*
21,1,0.702,0.350,0,0,0.0*
21,1,0.300,0.752,0,0,0.0*
1,1,0.402,0.150,-0.175*
1,1,0.402,-0.150,-0.175*
1,1,0.402,-0.150,0.175*
1,1,0.402,0.150,0.175*
%
%ADD27ROUNDEDRECTD27*%
%ADD28R,1.852X0.502*%
%ADD29R,0.502X1.852*%
%ADD30C,1.402*%
%ADD31C,2.642*%
%ADD32C,4.102*%
%ADD33C,2.602*%
%ADD34C,3.404*%
%ADD35C,3.352*%
%ADD36C,6.452*%
%ADD37C,1.202*%
%ADD38C,0.802*%
%ADD39R,2.007X2.007*%
%ADD40C,0.737*%
D16*
X56225Y7691D02*
D03*
X56825D02*
D03*
X79225Y63691D02*
D03*
X70625Y7691D02*
D03*
X71225D02*
D03*
X58025D02*
D03*
X58625D02*
D03*
X61025D02*
D03*
X61625D02*
D03*
X63425D02*
D03*
X65825D02*
D03*
X66425D02*
D03*
X73625D02*
D03*
X75425D02*
D03*
X76025D02*
D03*
X78425D02*
D03*
X53825Y13391D02*
D03*
X54425D02*
D03*
X55625D02*
D03*
X56225D02*
D03*
X62425Y63691D02*
D03*
X63025D02*
D03*
X60025D02*
D03*
X58625Y13391D02*
D03*
X59225D02*
D03*
X61025D02*
D03*
X64025D02*
D03*
X65825D02*
D03*
X70025D02*
D03*
X70625D02*
D03*
X68825D02*
D03*
X72425D02*
D03*
X73625D02*
D03*
X74825D02*
D03*
X75425D02*
D03*
X78425D02*
D03*
X74425Y63691D02*
D03*
X75025D02*
D03*
X59425D02*
D03*
X92425Y69391D02*
D03*
X91825D02*
D03*
X91225Y69391D02*
D03*
X90625Y69391D02*
D03*
X90025D02*
D03*
X89425D02*
D03*
X88825D02*
D03*
X88225Y69391D02*
D03*
X87625Y69391D02*
D03*
X87025D02*
D03*
X86425Y69391D02*
D03*
X85825Y69391D02*
D03*
X85225D02*
D03*
X84625D02*
D03*
X84025D02*
D03*
X83425D02*
D03*
X82825D02*
D03*
X82225D02*
D03*
X81625D02*
D03*
X81025D02*
D03*
X80425D02*
D03*
X79825D02*
D03*
X79225D02*
D03*
X78625D02*
D03*
X78025D02*
D03*
X77425D02*
D03*
X76825D02*
D03*
X76225D02*
D03*
X75625Y69391D02*
D03*
X75025Y69391D02*
D03*
X74425D02*
D03*
X73825Y69391D02*
D03*
X73225Y69391D02*
D03*
X72625D02*
D03*
X72025D02*
D03*
X71425D02*
D03*
X70825Y69391D02*
D03*
X70225Y69391D02*
D03*
X69625D02*
D03*
X69025Y69391D02*
D03*
X68425Y69391D02*
D03*
X67825D02*
D03*
X67225Y69391D02*
D03*
X66625Y69391D02*
D03*
X66025D02*
D03*
X65425D02*
D03*
X64825D02*
D03*
X64225D02*
D03*
X63625D02*
D03*
X63025D02*
D03*
X62425D02*
D03*
X61825D02*
D03*
X61225D02*
D03*
X60625D02*
D03*
X60025D02*
D03*
X59425D02*
D03*
X58825D02*
D03*
X58225D02*
D03*
X57625D02*
D03*
Y63691D02*
D03*
X58225D02*
D03*
X58825D02*
D03*
X60625D02*
D03*
X61225D02*
D03*
X61825D02*
D03*
X63625D02*
D03*
X64225D02*
D03*
X64825D02*
D03*
X65425D02*
D03*
X66025D02*
D03*
X66625D02*
D03*
X67225D02*
D03*
X67825D02*
D03*
X68425D02*
D03*
X69025D02*
D03*
X69625D02*
D03*
X70225D02*
D03*
X70825D02*
D03*
X71425D02*
D03*
X72025D02*
D03*
X72625D02*
D03*
X73225D02*
D03*
X73825D02*
D03*
X75625D02*
D03*
X76225D02*
D03*
X76825D02*
D03*
X77425D02*
D03*
X78025D02*
D03*
X78625D02*
D03*
X79825D02*
D03*
X80425D02*
D03*
X81025D02*
D03*
X81625D02*
D03*
X82225D02*
D03*
X82825D02*
D03*
X83425D02*
D03*
X84025D02*
D03*
X84625D02*
D03*
X85225D02*
D03*
X85825D02*
D03*
X86425D02*
D03*
X87025D02*
D03*
X87625D02*
D03*
X88225D02*
D03*
X88825D02*
D03*
X89425D02*
D03*
X90025D02*
D03*
X90625D02*
D03*
X91225D02*
D03*
X91825D02*
D03*
X92425D02*
D03*
X93025D02*
D03*
X81425Y13391D02*
D03*
X80825D02*
D03*
X80225D02*
D03*
X79625D02*
D03*
X79025D02*
D03*
X77825D02*
D03*
X77225D02*
D03*
X76625D02*
D03*
X76025D02*
D03*
X74225D02*
D03*
X73025D02*
D03*
X71825D02*
D03*
X71225D02*
D03*
X69425D02*
D03*
X68225D02*
D03*
X67625D02*
D03*
X67025D02*
D03*
X66425D02*
D03*
X65225D02*
D03*
X64625D02*
D03*
X63425D02*
D03*
X62825D02*
D03*
X62225D02*
D03*
X61625D02*
D03*
X60425D02*
D03*
X59825D02*
D03*
X58025D02*
D03*
X57425D02*
D03*
X56825D02*
D03*
X55025D02*
D03*
X53225D02*
D03*
X52625D02*
D03*
X52025D02*
D03*
X51425D02*
D03*
X50825D02*
D03*
X50225D02*
D03*
X49625D02*
D03*
X49025D02*
D03*
X48425D02*
D03*
X47825D02*
D03*
X47225D02*
D03*
X46625D02*
D03*
Y7691D02*
D03*
X47225D02*
D03*
X47825D02*
D03*
X48425D02*
D03*
X49025D02*
D03*
X49625D02*
D03*
X50225D02*
D03*
X50825D02*
D03*
X51425D02*
D03*
X52025D02*
D03*
X52625D02*
D03*
X53225D02*
D03*
X53825D02*
D03*
X54425D02*
D03*
X55025D02*
D03*
X55625D02*
D03*
X57425D02*
D03*
X59225D02*
D03*
X59825D02*
D03*
X60425D02*
D03*
X62225D02*
D03*
X62825D02*
D03*
X64025D02*
D03*
X64625D02*
D03*
X65225D02*
D03*
X67025D02*
D03*
X67625D02*
D03*
X68225D02*
D03*
X68825D02*
D03*
X69425D02*
D03*
X70025D02*
D03*
X71825D02*
D03*
X72425D02*
D03*
X73025D02*
D03*
X74225D02*
D03*
X74825D02*
D03*
X76625D02*
D03*
X77225D02*
D03*
X77825D02*
D03*
X79025D02*
D03*
X79625D02*
D03*
X80225D02*
D03*
X80825D02*
D03*
X81425D02*
D03*
X82025D02*
D03*
D17*
X83475Y52641D02*
D03*
X89175D02*
D03*
Y53241D02*
D03*
X39475Y26241D02*
D03*
Y26841D02*
D03*
Y34041D02*
D03*
Y35241D02*
D03*
Y38841D02*
D03*
Y40041D02*
D03*
Y47241D02*
D03*
Y48441D02*
D03*
Y52041D02*
D03*
Y53241D02*
D03*
X89175Y30441D02*
D03*
Y31041D02*
D03*
X45175Y33441D02*
D03*
Y34041D02*
D03*
X89175Y23241D02*
D03*
X39475Y55641D02*
D03*
Y55041D02*
D03*
Y54441D02*
D03*
Y53841D02*
D03*
Y52641D02*
D03*
X39475Y51441D02*
D03*
X39475Y50841D02*
D03*
Y50241D02*
D03*
X39475Y49641D02*
D03*
X39475Y49041D02*
D03*
Y47841D02*
D03*
Y46641D02*
D03*
Y46041D02*
D03*
Y45441D02*
D03*
Y44841D02*
D03*
Y44241D02*
D03*
Y43641D02*
D03*
Y43041D02*
D03*
Y42441D02*
D03*
Y41841D02*
D03*
Y41241D02*
D03*
Y40641D02*
D03*
Y39441D02*
D03*
Y38241D02*
D03*
Y37641D02*
D03*
Y37041D02*
D03*
Y36441D02*
D03*
Y35841D02*
D03*
Y34641D02*
D03*
Y33441D02*
D03*
Y32841D02*
D03*
Y32241D02*
D03*
Y31641D02*
D03*
Y31041D02*
D03*
Y30441D02*
D03*
Y29841D02*
D03*
Y29241D02*
D03*
Y28641D02*
D03*
Y28041D02*
D03*
X39475Y27441D02*
D03*
Y25641D02*
D03*
X39475Y25041D02*
D03*
Y24441D02*
D03*
Y23841D02*
D03*
Y23241D02*
D03*
Y22641D02*
D03*
Y22041D02*
D03*
Y21441D02*
D03*
Y20841D02*
D03*
X45175D02*
D03*
Y21441D02*
D03*
Y22041D02*
D03*
Y22641D02*
D03*
Y23241D02*
D03*
Y23841D02*
D03*
Y24441D02*
D03*
Y25041D02*
D03*
X45175Y25641D02*
D03*
X45175Y26241D02*
D03*
Y26841D02*
D03*
X45175Y27441D02*
D03*
X45175Y28041D02*
D03*
Y28641D02*
D03*
Y29241D02*
D03*
Y29841D02*
D03*
Y30441D02*
D03*
Y31041D02*
D03*
Y31641D02*
D03*
Y32241D02*
D03*
Y32841D02*
D03*
Y34641D02*
D03*
Y35241D02*
D03*
Y35841D02*
D03*
Y36441D02*
D03*
Y37041D02*
D03*
Y37641D02*
D03*
Y38241D02*
D03*
Y38841D02*
D03*
Y39441D02*
D03*
Y40041D02*
D03*
Y40641D02*
D03*
Y41241D02*
D03*
Y41841D02*
D03*
Y42441D02*
D03*
Y43041D02*
D03*
Y43641D02*
D03*
Y44241D02*
D03*
Y44841D02*
D03*
Y45441D02*
D03*
Y46041D02*
D03*
Y46641D02*
D03*
Y47241D02*
D03*
Y47841D02*
D03*
Y48441D02*
D03*
Y49041D02*
D03*
X45175Y49641D02*
D03*
X45175Y50241D02*
D03*
Y50841D02*
D03*
X45175Y51441D02*
D03*
X45175Y52041D02*
D03*
Y52641D02*
D03*
Y53241D02*
D03*
Y53841D02*
D03*
Y54441D02*
D03*
Y55041D02*
D03*
Y55641D02*
D03*
Y56241D02*
D03*
X83475Y55641D02*
D03*
Y55041D02*
D03*
Y54441D02*
D03*
Y53841D02*
D03*
Y53241D02*
D03*
Y52041D02*
D03*
Y51441D02*
D03*
Y50841D02*
D03*
Y50241D02*
D03*
Y49641D02*
D03*
Y49041D02*
D03*
Y48441D02*
D03*
Y47841D02*
D03*
Y47241D02*
D03*
Y46641D02*
D03*
Y46041D02*
D03*
Y45441D02*
D03*
Y44841D02*
D03*
Y44241D02*
D03*
Y43641D02*
D03*
Y43041D02*
D03*
Y42441D02*
D03*
Y41841D02*
D03*
Y41241D02*
D03*
Y40641D02*
D03*
Y40041D02*
D03*
Y39441D02*
D03*
Y38841D02*
D03*
Y38241D02*
D03*
Y37641D02*
D03*
Y37041D02*
D03*
Y36441D02*
D03*
Y35841D02*
D03*
Y35241D02*
D03*
Y34641D02*
D03*
Y34041D02*
D03*
Y33441D02*
D03*
Y32841D02*
D03*
Y32241D02*
D03*
Y31641D02*
D03*
Y31041D02*
D03*
Y30441D02*
D03*
Y29841D02*
D03*
Y29241D02*
D03*
Y28641D02*
D03*
Y28041D02*
D03*
Y27441D02*
D03*
Y26841D02*
D03*
Y26241D02*
D03*
Y25641D02*
D03*
Y25041D02*
D03*
Y24441D02*
D03*
Y23841D02*
D03*
Y23241D02*
D03*
Y22641D02*
D03*
Y22041D02*
D03*
Y21441D02*
D03*
Y20841D02*
D03*
X89175D02*
D03*
Y21441D02*
D03*
Y22041D02*
D03*
Y22641D02*
D03*
Y23841D02*
D03*
Y24441D02*
D03*
Y25041D02*
D03*
Y25641D02*
D03*
Y26241D02*
D03*
Y26841D02*
D03*
Y27441D02*
D03*
Y28041D02*
D03*
Y28641D02*
D03*
Y29241D02*
D03*
Y29841D02*
D03*
Y31641D02*
D03*
Y32241D02*
D03*
Y32841D02*
D03*
Y33441D02*
D03*
Y34041D02*
D03*
Y34641D02*
D03*
Y35241D02*
D03*
Y35841D02*
D03*
Y36441D02*
D03*
Y37041D02*
D03*
Y37641D02*
D03*
Y38241D02*
D03*
Y38841D02*
D03*
Y39441D02*
D03*
Y40041D02*
D03*
Y40641D02*
D03*
Y41241D02*
D03*
Y41841D02*
D03*
Y42441D02*
D03*
Y43041D02*
D03*
Y43641D02*
D03*
Y44241D02*
D03*
Y44841D02*
D03*
Y45441D02*
D03*
Y46041D02*
D03*
Y46641D02*
D03*
Y47241D02*
D03*
Y47841D02*
D03*
Y48441D02*
D03*
Y49041D02*
D03*
Y49641D02*
D03*
Y50241D02*
D03*
Y50841D02*
D03*
Y51441D02*
D03*
Y52041D02*
D03*
Y53841D02*
D03*
Y54441D02*
D03*
Y55041D02*
D03*
Y55641D02*
D03*
Y56241D02*
D03*
D18*
X92592Y42155D02*
D03*
Y43255D02*
D03*
X94234Y52409D02*
D03*
Y53509D02*
D03*
X92574Y54771D02*
D03*
Y55871D02*
D03*
X92583Y37592D02*
D03*
X31877Y32597D02*
D03*
Y33697D02*
D03*
X33655Y51138D02*
D03*
Y50038D02*
D03*
X35306Y52113D02*
D03*
Y53213D02*
D03*
X92583Y51138D02*
D03*
Y50038D02*
D03*
X35814Y48344D02*
D03*
Y47244D02*
D03*
X34925Y40386D02*
D03*
Y41486D02*
D03*
X93599Y18288D02*
D03*
Y17188D02*
D03*
X31877Y38862D02*
D03*
Y39962D02*
D03*
X91948Y19939D02*
D03*
Y18839D02*
D03*
X34925Y34079D02*
D03*
Y35179D02*
D03*
X94244Y41529D02*
D03*
Y40429D02*
D03*
X92583Y36492D02*
D03*
X35433Y26035D02*
D03*
Y27135D02*
D03*
X92252Y23580D02*
D03*
Y24680D02*
D03*
D19*
X132080Y55880D02*
D03*
X109855Y16916D02*
D03*
X15875Y18415D02*
D03*
D20*
X135280Y30886D02*
D03*
X134620Y55855D02*
D03*
X110490Y7950D02*
D03*
X135255Y28702D02*
D03*
D21*
X124460Y46939D02*
D03*
Y50039D02*
D03*
X125732Y30252D02*
D03*
Y27152D02*
D03*
D22*
X120777Y30199D02*
D03*
Y23649D02*
D03*
X123371Y42832D02*
D03*
Y36282D02*
D03*
D23*
X131639Y43934D02*
D03*
D24*
X134179Y34034D02*
D03*
X131639D02*
D03*
X129099D02*
D03*
D25*
X130175Y25465D02*
D03*
Y30415D02*
D03*
D26*
X138471Y25654D02*
D03*
X134071D02*
D03*
D27*
X65540Y4064D02*
D03*
X66640D02*
D03*
X70366Y2667D02*
D03*
X71466D02*
D03*
X72779Y4445D02*
D03*
X73879D02*
D03*
X55422Y16510D02*
D03*
X56522D02*
D03*
X69731Y17653D02*
D03*
X70831D02*
D03*
D28*
X39475Y56241D02*
D03*
X83475D02*
D03*
D29*
X93025Y69391D02*
D03*
X82025Y13391D02*
D03*
D30*
X126796Y81984D02*
D03*
X124256Y83254D02*
D03*
Y85794D02*
D03*
X126796Y87064D02*
D03*
Y84524D02*
D03*
X124256Y88334D02*
D03*
X126796Y89604D02*
D03*
X124256Y90874D02*
D03*
X126796Y100965D02*
D03*
X124256Y102235D02*
D03*
Y104775D02*
D03*
X126796Y106045D02*
D03*
Y103505D02*
D03*
X124256Y107315D02*
D03*
X126796Y108585D02*
D03*
X124256Y109855D02*
D03*
X12750Y83185D02*
D03*
X15290Y81915D02*
D03*
X12750Y85725D02*
D03*
X15290Y86995D02*
D03*
X12750Y90805D02*
D03*
X15290Y89535D02*
D03*
Y100965D02*
D03*
X12750Y102235D02*
D03*
Y104775D02*
D03*
X15290Y106045D02*
D03*
Y108585D02*
D03*
X12750Y109855D02*
D03*
X47552Y88398D02*
D03*
X51362Y90938D02*
D03*
X48822Y97542D02*
D03*
X50092Y95002D02*
D03*
X45012Y95002D02*
D03*
X46282Y97542D02*
D03*
X86922Y88398D02*
D03*
X88192Y90938D02*
D03*
X58982Y88398D02*
D03*
X60252Y90938D02*
D03*
X75492Y88394D02*
D03*
X79302Y90934D02*
D03*
X12750Y107315D02*
D03*
X15290Y103505D02*
D03*
X12750Y88265D02*
D03*
X15290Y84455D02*
D03*
X62792Y97542D02*
D03*
X64062Y95002D02*
D03*
X62792Y90938D02*
D03*
X64062Y88398D02*
D03*
X78032Y94998D02*
D03*
X76762Y97538D02*
D03*
X80572Y94988D02*
D03*
X81842Y97538D02*
D03*
X78032Y88394D02*
D03*
X76762Y90934D02*
D03*
X86922Y95002D02*
D03*
X88192Y97542D02*
D03*
X90732D02*
D03*
X92002Y95002D02*
D03*
X92002Y88398D02*
D03*
X90732Y90938D02*
D03*
X72952Y88394D02*
D03*
X80572Y88384D02*
D03*
X74222Y90934D02*
D03*
X81842D02*
D03*
X89462Y88398D02*
D03*
X94542D02*
D03*
X93272Y90938D02*
D03*
X95812D02*
D03*
X67872Y90938D02*
D03*
X65332D02*
D03*
X66602Y88388D02*
D03*
X61522Y88398D02*
D03*
X53902Y90938D02*
D03*
X48822D02*
D03*
X46282D02*
D03*
X52632Y88388D02*
D03*
X50092Y88398D02*
D03*
X45012Y88398D02*
D03*
X47552Y95002D02*
D03*
X52632Y94992D02*
D03*
X51362Y97542D02*
D03*
X53902D02*
D03*
X58982Y95002D02*
D03*
X61522D02*
D03*
X66602Y94992D02*
D03*
X60252Y97542D02*
D03*
X65332D02*
D03*
X67872D02*
D03*
X95812Y97542D02*
D03*
X93272D02*
D03*
X94542Y95002D02*
D03*
X89462D02*
D03*
X79302Y97538D02*
D03*
X74222D02*
D03*
X75492Y94998D02*
D03*
X72952D02*
D03*
D31*
X133322Y15047D02*
D03*
X129122Y20547D02*
D03*
X133322D02*
D03*
X129122Y15047D02*
D03*
D32*
X131222Y7747D02*
D03*
D33*
X136196Y113210D02*
D03*
Y97610D02*
D03*
X3350D02*
D03*
Y113210D02*
D03*
X136196Y94229D02*
D03*
Y78629D02*
D03*
X3350Y78560D02*
D03*
Y94160D02*
D03*
X99872Y108458D02*
D03*
X99112Y94748D02*
D03*
X99872Y88398D02*
D03*
X40952Y108458D02*
D03*
X41712Y98048D02*
D03*
X40952Y92458D02*
D03*
D34*
X133146Y99695D02*
D03*
X6400Y111125D02*
D03*
X133146Y80714D02*
D03*
X6400Y92075D02*
D03*
X97082Y103888D02*
D03*
D35*
X133146Y111125D02*
D03*
X6400Y99695D02*
D03*
X133146Y92144D02*
D03*
X6400Y80645D02*
D03*
X43742Y103888D02*
D03*
D36*
X110871Y90297D02*
D03*
Y24257D02*
D03*
X27813D02*
D03*
Y90297D02*
D03*
X105322Y74100D02*
D03*
X35322Y3490D02*
D03*
D37*
X40825Y58641D02*
D03*
X95425Y68041D02*
D03*
X84425Y12041D02*
D03*
X84825Y58641D02*
D03*
D38*
X40825Y18441D02*
D03*
X55225Y68041D02*
D03*
X44225Y12041D02*
D03*
X84825Y18441D02*
D03*
D39*
X3125Y29972D02*
D03*
Y32512D02*
D03*
Y35052D02*
D03*
Y37592D02*
D03*
Y40132D02*
D03*
X5665Y29972D02*
D03*
Y32512D02*
D03*
Y35052D02*
D03*
Y37592D02*
D03*
Y40132D02*
D03*
X8205Y29972D02*
D03*
Y32512D02*
D03*
Y35052D02*
D03*
Y37592D02*
D03*
Y40132D02*
D03*
X3125Y42672D02*
D03*
Y45212D02*
D03*
Y47752D02*
D03*
Y50292D02*
D03*
Y52832D02*
D03*
X5665Y42672D02*
D03*
Y45212D02*
D03*
Y47752D02*
D03*
Y50292D02*
D03*
Y52832D02*
D03*
X8205Y42672D02*
D03*
Y45212D02*
D03*
Y47752D02*
D03*
Y50292D02*
D03*
Y52832D02*
D03*
X3125Y55372D02*
D03*
Y57912D02*
D03*
Y60452D02*
D03*
Y62992D02*
D03*
Y65532D02*
D03*
X5665Y55372D02*
D03*
Y57912D02*
D03*
Y60452D02*
D03*
Y62992D02*
D03*
Y65532D02*
D03*
X8205Y55372D02*
D03*
Y57912D02*
D03*
Y60452D02*
D03*
Y62992D02*
D03*
Y65532D02*
D03*
X3125Y17272D02*
D03*
Y19812D02*
D03*
Y22352D02*
D03*
Y24892D02*
D03*
Y27432D02*
D03*
X5665Y17272D02*
D03*
Y19812D02*
D03*
Y22352D02*
D03*
Y24892D02*
D03*
Y27432D02*
D03*
X8205Y17272D02*
D03*
Y19812D02*
D03*
Y22352D02*
D03*
Y24892D02*
D03*
Y27432D02*
D03*
D40*
X104546Y47676D02*
D03*
X100381Y102921D02*
D03*
X96495Y84709D02*
D03*
X94158Y81610D02*
D03*
X88392Y85725D02*
D03*
X82042Y86893D02*
D03*
X76479Y84734D02*
D03*
X35839Y49555D02*
D03*
X36932Y51587D02*
D03*
X64516Y6096D02*
D03*
X64618Y17374D02*
D03*
X102692Y54788D02*
D03*
X103759Y52756D02*
D03*
X108102Y44247D02*
D03*
X67920Y2718D02*
D03*
X69621Y5893D02*
D03*
X79350Y5512D02*
D03*
X76937Y5359D02*
D03*
X136251Y102449D02*
D03*
Y89749D02*
D03*
Y64349D02*
D03*
Y38949D02*
D03*
Y13549D02*
D03*
Y849D02*
D03*
X133076Y108799D02*
D03*
X129901Y102449D02*
D03*
X133076Y96099D02*
D03*
X129901Y89749D02*
D03*
X133076Y83399D02*
D03*
X129901Y77049D02*
D03*
X133076Y70699D02*
D03*
X129901Y64349D02*
D03*
X133076Y57999D02*
D03*
X129901Y38949D02*
D03*
X133076Y32599D02*
D03*
X129901Y849D02*
D03*
X126726Y96099D02*
D03*
X123551Y77049D02*
D03*
X126726Y70699D02*
D03*
Y57999D02*
D03*
X123551Y51649D02*
D03*
Y38949D02*
D03*
X126726Y32599D02*
D03*
X123551Y26249D02*
D03*
X126726Y19899D02*
D03*
X123551Y13549D02*
D03*
X126726Y7199D02*
D03*
X123551Y849D02*
D03*
X120376Y96099D02*
D03*
Y57999D02*
D03*
Y45299D02*
D03*
Y32599D02*
D03*
X117201Y26249D02*
D03*
X120376Y19899D02*
D03*
X117201Y13549D02*
D03*
X120376Y7199D02*
D03*
X117201Y849D02*
D03*
X110851Y102449D02*
D03*
X114026Y19899D02*
D03*
X110851Y849D02*
D03*
X107676Y108799D02*
D03*
X104501Y38949D02*
D03*
Y26249D02*
D03*
X107676Y19899D02*
D03*
X104501Y849D02*
D03*
X101326Y83399D02*
D03*
Y7199D02*
D03*
X98151Y849D02*
D03*
X94976Y108799D02*
D03*
X91801Y102449D02*
D03*
Y77049D02*
D03*
Y13549D02*
D03*
Y849D02*
D03*
X88626Y108799D02*
D03*
X85451Y102449D02*
D03*
X88626Y57999D02*
D03*
X85451Y13549D02*
D03*
X82276Y108799D02*
D03*
X79101Y102449D02*
D03*
Y77049D02*
D03*
X82276Y57999D02*
D03*
X79101Y26249D02*
D03*
X82276Y19899D02*
D03*
X75926Y108799D02*
D03*
X72751Y102449D02*
D03*
X75926Y70699D02*
D03*
Y57999D02*
D03*
Y45299D02*
D03*
Y32599D02*
D03*
X69576Y108799D02*
D03*
X66401Y102449D02*
D03*
X69576Y96099D02*
D03*
X60051Y51649D02*
D03*
Y38949D02*
D03*
Y26249D02*
D03*
X56876Y108799D02*
D03*
X53701Y102449D02*
D03*
X56876Y96099D02*
D03*
X50526Y108799D02*
D03*
X47351Y102449D02*
D03*
Y77049D02*
D03*
Y64349D02*
D03*
Y38949D02*
D03*
Y26249D02*
D03*
X44176Y108799D02*
D03*
X41001Y102449D02*
D03*
X44176Y83399D02*
D03*
X41001Y77049D02*
D03*
X37826Y108799D02*
D03*
X34651Y102449D02*
D03*
Y77049D02*
D03*
X37826Y70699D02*
D03*
X34651Y64349D02*
D03*
Y13549D02*
D03*
X37826Y7199D02*
D03*
X31476Y108799D02*
D03*
X28301Y102449D02*
D03*
X31476Y19899D02*
D03*
X28301Y13549D02*
D03*
X31476Y7199D02*
D03*
X28301Y849D02*
D03*
X21951Y102449D02*
D03*
X25126Y96099D02*
D03*
X21951Y89749D02*
D03*
Y26249D02*
D03*
Y849D02*
D03*
X18776Y96099D02*
D03*
Y83399D02*
D03*
X15601Y77049D02*
D03*
X18776Y70699D02*
D03*
X15601Y64349D02*
D03*
Y51649D02*
D03*
Y38949D02*
D03*
X18776Y32599D02*
D03*
X15601Y26249D02*
D03*
Y13549D02*
D03*
X18776Y7199D02*
D03*
X15601Y849D02*
D03*
X9251Y102449D02*
D03*
X12426Y96099D02*
D03*
X9251Y89749D02*
D03*
Y77049D02*
D03*
X12426Y70699D02*
D03*
Y57999D02*
D03*
Y32599D02*
D03*
Y19899D02*
D03*
X9251Y13549D02*
D03*
X12426Y7199D02*
D03*
X9251Y849D02*
D03*
X6076Y108799D02*
D03*
X2901Y102449D02*
D03*
X6076Y96099D02*
D03*
X2901Y89749D02*
D03*
X6076Y83399D02*
D03*
Y70699D02*
D03*
X2901Y13549D02*
D03*
X6076Y7199D02*
D03*
X2901Y849D02*
D03*
X137236Y30886D02*
D03*
X41015Y44241D02*
D03*
X60579Y9728D02*
D03*
M02*
