G04*
G04 #@! TF.GenerationSoftware,Altium Limited,Altium Designer,18.0.12 (696)*
G04*
G04 Layer_Color=16711935*
%FSLAX43Y43*%
%MOMM*%
G71*
G01*
G75*
G04:AMPARAMS|DCode=18|XSize=0.702mm|YSize=0.752mm|CornerRadius=0.201mm|HoleSize=0mm|Usage=FLASHONLY|Rotation=90.000|XOffset=0mm|YOffset=0mm|HoleType=Round|Shape=RoundedRectangle|*
%AMROUNDEDRECTD18*
21,1,0.702,0.350,0,0,90.0*
21,1,0.300,0.752,0,0,90.0*
1,1,0.402,0.175,0.150*
1,1,0.402,0.175,-0.150*
1,1,0.402,-0.175,-0.150*
1,1,0.402,-0.175,0.150*
%
%ADD18ROUNDEDRECTD18*%
G04:AMPARAMS|DCode=21|XSize=1.302mm|YSize=1.902mm|CornerRadius=0.351mm|HoleSize=0mm|Usage=FLASHONLY|Rotation=270.000|XOffset=0mm|YOffset=0mm|HoleType=Round|Shape=RoundedRectangle|*
%AMROUNDEDRECTD21*
21,1,1.302,1.200,0,0,270.0*
21,1,0.600,1.902,0,0,270.0*
1,1,0.702,-0.600,-0.300*
1,1,0.702,-0.600,0.300*
1,1,0.702,0.600,0.300*
1,1,0.702,0.600,-0.300*
%
%ADD21ROUNDEDRECTD21*%
G04:AMPARAMS|DCode=27|XSize=0.702mm|YSize=0.752mm|CornerRadius=0.201mm|HoleSize=0mm|Usage=FLASHONLY|Rotation=0.000|XOffset=0mm|YOffset=0mm|HoleType=Round|Shape=RoundedRectangle|*
%AMROUNDEDRECTD27*
21,1,0.702,0.350,0,0,0.0*
21,1,0.300,0.752,0,0,0.0*
1,1,0.402,0.150,-0.175*
1,1,0.402,-0.150,-0.175*
1,1,0.402,-0.150,0.175*
1,1,0.402,0.150,0.175*
%
%ADD27ROUNDEDRECTD27*%
%ADD30C,1.402*%
%ADD31C,2.642*%
%ADD32C,4.102*%
%ADD33C,2.602*%
%ADD34C,3.404*%
%ADD35C,3.352*%
%ADD36C,6.452*%
%ADD37C,1.202*%
%ADD38C,0.802*%
%ADD39R,2.007X2.007*%
%ADD40C,0.737*%
%ADD89R,1.852X1.152*%
%ADD90R,1.852X1.152*%
%ADD91R,1.852X3.502*%
G04:AMPARAMS|DCode=92|XSize=1.302mm|YSize=1.902mm|CornerRadius=0.351mm|HoleSize=0mm|Usage=FLASHONLY|Rotation=180.000|XOffset=0mm|YOffset=0mm|HoleType=Round|Shape=RoundedRectangle|*
%AMROUNDEDRECTD92*
21,1,1.302,1.200,0,0,180.0*
21,1,0.600,1.902,0,0,180.0*
1,1,0.702,-0.300,0.600*
1,1,0.702,0.300,0.600*
1,1,0.702,0.300,-0.600*
1,1,0.702,-0.300,-0.600*
%
%ADD92ROUNDEDRECTD92*%
%ADD93R,1.152X1.852*%
%ADD94R,1.152X1.852*%
%ADD95R,3.502X1.852*%
D18*
X85013Y22056D02*
D03*
Y23156D02*
D03*
D21*
X118795Y3098D02*
D03*
Y6198D02*
D03*
X106476Y6527D02*
D03*
Y9627D02*
D03*
X18905Y17044D02*
D03*
Y13944D02*
D03*
X106095Y14782D02*
D03*
Y17882D02*
D03*
X118795Y11480D02*
D03*
Y14580D02*
D03*
D27*
X72763Y10211D02*
D03*
X73863D02*
D03*
X45474Y8128D02*
D03*
X46574D02*
D03*
X53602Y8890D02*
D03*
X54702D02*
D03*
X58428D02*
D03*
X59528D02*
D03*
X67953Y8636D02*
D03*
X69053D02*
D03*
D30*
X126796Y81984D02*
D03*
X124256Y83254D02*
D03*
Y85794D02*
D03*
X126796Y87064D02*
D03*
Y84524D02*
D03*
X124256Y88334D02*
D03*
X126796Y89604D02*
D03*
X124256Y90874D02*
D03*
X126796Y100965D02*
D03*
X124256Y102235D02*
D03*
Y104775D02*
D03*
X126796Y106045D02*
D03*
Y103505D02*
D03*
X124256Y107315D02*
D03*
X126796Y108585D02*
D03*
X124256Y109855D02*
D03*
X12750Y83185D02*
D03*
X15290Y81915D02*
D03*
X12750Y85725D02*
D03*
X15290Y86995D02*
D03*
X12750Y90805D02*
D03*
X15290Y89535D02*
D03*
Y100965D02*
D03*
X12750Y102235D02*
D03*
Y104775D02*
D03*
X15290Y106045D02*
D03*
Y108585D02*
D03*
X12750Y109855D02*
D03*
X47552Y88398D02*
D03*
X51362Y90938D02*
D03*
X48822Y97542D02*
D03*
X50092Y95002D02*
D03*
X45012Y95002D02*
D03*
X46282Y97542D02*
D03*
X86922Y88398D02*
D03*
X88192Y90938D02*
D03*
X58982Y88398D02*
D03*
X60252Y90938D02*
D03*
X75492Y88394D02*
D03*
X79302Y90934D02*
D03*
X12750Y107315D02*
D03*
X15290Y103505D02*
D03*
X12750Y88265D02*
D03*
X15290Y84455D02*
D03*
X62792Y97542D02*
D03*
X64062Y95002D02*
D03*
X62792Y90938D02*
D03*
X64062Y88398D02*
D03*
X78032Y94998D02*
D03*
X76762Y97538D02*
D03*
X80572Y94988D02*
D03*
X81842Y97538D02*
D03*
X78032Y88394D02*
D03*
X76762Y90934D02*
D03*
X86922Y95002D02*
D03*
X88192Y97542D02*
D03*
X90732D02*
D03*
X92002Y95002D02*
D03*
X92002Y88398D02*
D03*
X90732Y90938D02*
D03*
X72952Y88394D02*
D03*
X80572Y88384D02*
D03*
X74222Y90934D02*
D03*
X81842D02*
D03*
X89462Y88398D02*
D03*
X94542D02*
D03*
X93272Y90938D02*
D03*
X95812D02*
D03*
X67872Y90938D02*
D03*
X65332D02*
D03*
X66602Y88388D02*
D03*
X61522Y88398D02*
D03*
X53902Y90938D02*
D03*
X48822D02*
D03*
X46282D02*
D03*
X52632Y88388D02*
D03*
X50092Y88398D02*
D03*
X45012Y88398D02*
D03*
X47552Y95002D02*
D03*
X52632Y94992D02*
D03*
X51362Y97542D02*
D03*
X53902D02*
D03*
X58982Y95002D02*
D03*
X61522D02*
D03*
X66602Y94992D02*
D03*
X60252Y97542D02*
D03*
X65332D02*
D03*
X67872D02*
D03*
X95812Y97542D02*
D03*
X93272D02*
D03*
X94542Y95002D02*
D03*
X89462D02*
D03*
X79302Y97538D02*
D03*
X74222D02*
D03*
X75492Y94998D02*
D03*
X72952D02*
D03*
D31*
X133322Y15047D02*
D03*
X129122Y20547D02*
D03*
X133322D02*
D03*
X129122Y15047D02*
D03*
D32*
X131222Y7747D02*
D03*
D33*
X136196Y113210D02*
D03*
Y97610D02*
D03*
X3350D02*
D03*
Y113210D02*
D03*
X136196Y94229D02*
D03*
Y78629D02*
D03*
X3350Y78560D02*
D03*
Y94160D02*
D03*
X99872Y108458D02*
D03*
X99112Y94748D02*
D03*
X99872Y88398D02*
D03*
X40952Y108458D02*
D03*
X41712Y98048D02*
D03*
X40952Y92458D02*
D03*
D34*
X133146Y99695D02*
D03*
X6400Y111125D02*
D03*
X133146Y80714D02*
D03*
X6400Y92075D02*
D03*
X97082Y103888D02*
D03*
D35*
X133146Y111125D02*
D03*
X6400Y99695D02*
D03*
X133146Y92144D02*
D03*
X6400Y80645D02*
D03*
X43742Y103888D02*
D03*
D36*
X110871Y90297D02*
D03*
Y24257D02*
D03*
X27813D02*
D03*
Y90297D02*
D03*
X105322Y74100D02*
D03*
X35322Y3490D02*
D03*
D37*
X40825Y58641D02*
D03*
X95425Y68041D02*
D03*
X84425Y12041D02*
D03*
X84825Y58641D02*
D03*
D38*
X40825Y18441D02*
D03*
X55225Y68041D02*
D03*
X44225Y12041D02*
D03*
X84825Y18441D02*
D03*
D39*
X3125Y29972D02*
D03*
Y32512D02*
D03*
Y35052D02*
D03*
Y37592D02*
D03*
Y40132D02*
D03*
X5665Y29972D02*
D03*
Y32512D02*
D03*
Y35052D02*
D03*
Y37592D02*
D03*
Y40132D02*
D03*
X8205Y29972D02*
D03*
Y32512D02*
D03*
Y35052D02*
D03*
Y37592D02*
D03*
Y40132D02*
D03*
X3125Y42672D02*
D03*
Y45212D02*
D03*
Y47752D02*
D03*
Y50292D02*
D03*
Y52832D02*
D03*
X5665Y42672D02*
D03*
Y45212D02*
D03*
Y47752D02*
D03*
Y50292D02*
D03*
Y52832D02*
D03*
X8205Y42672D02*
D03*
Y45212D02*
D03*
Y47752D02*
D03*
Y50292D02*
D03*
Y52832D02*
D03*
X3125Y55372D02*
D03*
Y57912D02*
D03*
Y60452D02*
D03*
Y62992D02*
D03*
Y65532D02*
D03*
X5665Y55372D02*
D03*
Y57912D02*
D03*
Y60452D02*
D03*
Y62992D02*
D03*
Y65532D02*
D03*
X8205Y55372D02*
D03*
Y57912D02*
D03*
Y60452D02*
D03*
Y62992D02*
D03*
Y65532D02*
D03*
X3125Y17272D02*
D03*
Y19812D02*
D03*
Y22352D02*
D03*
Y24892D02*
D03*
Y27432D02*
D03*
X5665Y17272D02*
D03*
Y19812D02*
D03*
Y22352D02*
D03*
Y24892D02*
D03*
Y27432D02*
D03*
X8205Y17272D02*
D03*
Y19812D02*
D03*
Y22352D02*
D03*
Y24892D02*
D03*
Y27432D02*
D03*
D40*
X104546Y47676D02*
D03*
X100381Y102921D02*
D03*
X96495Y84709D02*
D03*
X94158Y81610D02*
D03*
X88392Y85725D02*
D03*
X82042Y86893D02*
D03*
X76479Y84734D02*
D03*
X35839Y49555D02*
D03*
X36932Y51587D02*
D03*
X64516Y6096D02*
D03*
X64618Y17374D02*
D03*
X102692Y54788D02*
D03*
X103759Y52756D02*
D03*
X108102Y44247D02*
D03*
X67920Y2718D02*
D03*
X69621Y5893D02*
D03*
X79350Y5512D02*
D03*
X76937Y5359D02*
D03*
X136251Y102449D02*
D03*
Y89749D02*
D03*
Y64349D02*
D03*
Y38949D02*
D03*
Y13549D02*
D03*
Y849D02*
D03*
X133076Y108799D02*
D03*
X129901Y102449D02*
D03*
X133076Y96099D02*
D03*
X129901Y89749D02*
D03*
X133076Y83399D02*
D03*
X129901Y77049D02*
D03*
X133076Y70699D02*
D03*
X129901Y64349D02*
D03*
X133076Y57999D02*
D03*
X129901Y38949D02*
D03*
X133076Y32599D02*
D03*
X129901Y849D02*
D03*
X126726Y96099D02*
D03*
X123551Y77049D02*
D03*
X126726Y70699D02*
D03*
Y57999D02*
D03*
X123551Y51649D02*
D03*
Y38949D02*
D03*
X126726Y32599D02*
D03*
X123551Y26249D02*
D03*
X126726Y19899D02*
D03*
X123551Y13549D02*
D03*
X126726Y7199D02*
D03*
X123551Y849D02*
D03*
X120376Y96099D02*
D03*
Y57999D02*
D03*
Y45299D02*
D03*
Y32599D02*
D03*
X117201Y26249D02*
D03*
X120376Y19899D02*
D03*
X117201Y13549D02*
D03*
X120376Y7199D02*
D03*
X117201Y849D02*
D03*
X110851Y102449D02*
D03*
X114026Y19899D02*
D03*
X110851Y849D02*
D03*
X107676Y108799D02*
D03*
X104501Y38949D02*
D03*
Y26249D02*
D03*
X107676Y19899D02*
D03*
X104501Y849D02*
D03*
X101326Y83399D02*
D03*
Y7199D02*
D03*
X98151Y849D02*
D03*
X94976Y108799D02*
D03*
X91801Y102449D02*
D03*
Y77049D02*
D03*
Y13549D02*
D03*
Y849D02*
D03*
X88626Y108799D02*
D03*
X85451Y102449D02*
D03*
X88626Y57999D02*
D03*
X85451Y13549D02*
D03*
X82276Y108799D02*
D03*
X79101Y102449D02*
D03*
Y77049D02*
D03*
X82276Y57999D02*
D03*
X79101Y26249D02*
D03*
X82276Y19899D02*
D03*
X75926Y108799D02*
D03*
X72751Y102449D02*
D03*
X75926Y70699D02*
D03*
Y57999D02*
D03*
Y45299D02*
D03*
Y32599D02*
D03*
X69576Y108799D02*
D03*
X66401Y102449D02*
D03*
X69576Y96099D02*
D03*
X60051Y51649D02*
D03*
Y38949D02*
D03*
Y26249D02*
D03*
X56876Y108799D02*
D03*
X53701Y102449D02*
D03*
X56876Y96099D02*
D03*
X50526Y108799D02*
D03*
X47351Y102449D02*
D03*
Y77049D02*
D03*
Y64349D02*
D03*
Y38949D02*
D03*
Y26249D02*
D03*
X44176Y108799D02*
D03*
X41001Y102449D02*
D03*
X44176Y83399D02*
D03*
X41001Y77049D02*
D03*
X37826Y108799D02*
D03*
X34651Y102449D02*
D03*
Y77049D02*
D03*
X37826Y70699D02*
D03*
X34651Y64349D02*
D03*
Y13549D02*
D03*
X37826Y7199D02*
D03*
X31476Y108799D02*
D03*
X28301Y102449D02*
D03*
X31476Y19899D02*
D03*
X28301Y13549D02*
D03*
X31476Y7199D02*
D03*
X28301Y849D02*
D03*
X21951Y102449D02*
D03*
X25126Y96099D02*
D03*
X21951Y89749D02*
D03*
Y26249D02*
D03*
Y849D02*
D03*
X18776Y96099D02*
D03*
Y83399D02*
D03*
X15601Y77049D02*
D03*
X18776Y70699D02*
D03*
X15601Y64349D02*
D03*
Y51649D02*
D03*
Y38949D02*
D03*
X18776Y32599D02*
D03*
X15601Y26249D02*
D03*
Y13549D02*
D03*
X18776Y7199D02*
D03*
X15601Y849D02*
D03*
X9251Y102449D02*
D03*
X12426Y96099D02*
D03*
X9251Y89749D02*
D03*
Y77049D02*
D03*
X12426Y70699D02*
D03*
Y57999D02*
D03*
Y32599D02*
D03*
Y19899D02*
D03*
X9251Y13549D02*
D03*
X12426Y7199D02*
D03*
X9251Y849D02*
D03*
X6076Y108799D02*
D03*
X2901Y102449D02*
D03*
X6076Y96099D02*
D03*
X2901Y89749D02*
D03*
X6076Y83399D02*
D03*
Y70699D02*
D03*
X2901Y13549D02*
D03*
X6076Y7199D02*
D03*
X2901Y849D02*
D03*
X137236Y30886D02*
D03*
X41015Y44241D02*
D03*
X60579Y9728D02*
D03*
D89*
X115470Y7736D02*
D03*
X115480Y16092D02*
D03*
D90*
X115470Y5436D02*
D03*
Y3136D02*
D03*
X115480Y13792D02*
D03*
Y11492D02*
D03*
D91*
X108870Y5436D02*
D03*
X108880Y13792D02*
D03*
D92*
X21487Y8001D02*
D03*
X24587D02*
D03*
D93*
X26099Y10670D02*
D03*
D94*
X23799Y10670D02*
D03*
X21499D02*
D03*
D95*
X23799Y17270D02*
D03*
M02*
